<svg version="1.1" id="Layer_1" xmlns="http://www.w3.org/2000/svg" xmlns:xlink="http://www.w3.org/1999/xlink" x="0px" y="0px"
	 width="100%" viewBox="0 0 1024 1024" enable-background="new 0 0 1024 1024" xml:space="preserve">
<path fill="#000000" opacity="1.000000" stroke="none" 
	d="
M360.315186,512.536499 
	C350.523865,487.746735 346.831482,462.292389 348.953796,436.263550 
	C351.807098,401.269714 364.719086,370.050140 387.373993,343.134125 
	C416.331451,308.730133 453.400696,288.279694 497.887451,283.054626 
	C548.155273,277.150513 592.842224,291.496582 630.786560,325.211700 
	C661.360107,352.377472 679.614868,386.625397 684.990662,427.073303 
	C697.667053,522.451538 632.960876,600.594849 549.261108,616.425232 
	C471.795990,631.076355 390.771454,589.219116 360.315186,512.536499 
M429.496826,558.049500 
	C416.547333,547.793335 406.223145,535.228271 397.246216,521.465820 
	C396.198364,519.859375 395.570129,517.469421 392.251953,517.950378 
	C393.013641,519.693298 393.495605,521.085938 394.197693,522.356934 
	C399.792145,532.484924 406.646271,541.719116 414.847504,549.846863 
	C438.415192,573.203308 466.356537,587.867676 499.554779,591.937561 
	C522.617676,594.764832 545.073486,592.533142 566.827271,584.159485 
	C569.160217,583.261414 571.654480,582.448730 573.010498,580.162537 
	C574.895813,576.983948 577.869568,575.254211 580.932800,573.519897 
	C595.356567,565.353821 608.803345,555.904053 620.056763,543.584167 
	C621.509644,541.993652 622.959900,540.078003 625.295471,540.024536 
	C628.771423,539.944946 630.620422,537.735107 632.551208,535.376160 
	C639.362793,527.054260 644.521301,517.739197 648.886414,507.981140 
	C656.312317,491.381012 660.434265,473.998749 660.630188,455.764404 
	C660.657349,453.232300 660.905701,450.467407 658.354065,448.689026 
	C656.219299,449.895416 655.551636,453.449921 652.589600,451.983063 
	C650.244080,450.821533 650.159302,448.235901 649.936340,445.867035 
	C649.624695,442.556885 649.134644,439.264038 648.770203,435.958313 
	C646.694946,417.135773 640.744324,399.611145 631.060059,383.362122 
	C621.004822,366.490570 607.492920,352.816010 591.668457,341.360596 
	C588.565796,339.114563 587.449036,336.930054 590.382385,333.329041 
	C595.706665,335.976013 600.633606,338.908020 605.150879,342.626251 
	C621.591736,356.158844 634.683777,372.362976 644.372742,391.319885 
	C645.503174,393.531555 646.810120,395.549347 649.776245,396.619385 
	C649.402710,395.348053 649.214539,394.400970 648.853699,393.524963 
	C642.817505,378.868988 634.263611,365.757355 623.336121,354.380676 
	C588.805908,318.431000 546.692139,303.201477 497.142395,309.507782 
	C482.867371,311.324585 469.214722,315.741364 456.297821,322.190247 
	C454.453857,323.110931 451.916138,323.720642 451.812378,326.376190 
	C451.716919,328.818939 450.131317,329.820770 448.423187,330.905609 
	C445.892975,332.512665 443.374268,334.138489 440.871826,335.788452 
	C424.796509,346.387512 411.938568,360.258087 400.440948,375.520142 
	C399.701172,376.502167 399.087738,378.642273 397.686798,377.830292 
	C394.916107,376.224457 394.495361,378.468292 393.691498,379.828918 
	C377.073578,407.957184 371.265564,438.280518 375.646667,470.563538 
	C375.985565,473.060669 376.107025,476.180542 379.685242,478.542450 
	C379.606171,467.846741 376.551666,457.655151 381.149689,447.556396 
	C385.878662,450.999725 385.871704,455.522003 386.120514,459.731384 
	C386.842957,471.953766 389.288788,483.805115 393.451172,495.281586 
	C415.506989,556.093689 480.725922,592.276855 544.277222,579.086060 
	C546.178345,578.691467 548.320374,577.336243 550.408691,579.240967 
	C548.504395,583.182251 545.962402,585.718933 541.622253,586.778931 
	C526.625793,590.441711 511.505127,590.237183 496.477448,587.887573 
	C471.793152,584.027893 449.698242,573.932739 429.496826,558.049500 
M383.824249,500.555267 
	C385.281464,502.538513 384.900330,505.686829 388.603088,506.461731 
	C386.988281,502.257690 385.373474,498.053680 383.304443,492.667114 
	C382.382568,496.110352 383.147614,497.965027 383.824249,500.555267 
z"/>
<path fill="#000000" opacity="1.000000" stroke="none" 
	d="
M822.266479,682.240601 
	C824.538757,690.269958 821.539917,696.358398 814.623901,698.457703 
	C807.238525,700.699585 802.509216,697.017151 799.191467,686.441406 
	C794.546631,690.110474 794.128235,692.629456 797.230591,698.246643 
	C810.175842,721.685303 798.645569,748.931458 772.956787,755.606262 
	C748.011353,762.087769 723.880859,744.888306 723.258545,719.268738 
	C722.882568,703.790161 729.301086,690.873230 743.668030,683.549866 
	C758.170593,676.157410 772.513367,676.938538 786.079224,686.472534 
	C788.931396,688.476990 789.930298,690.848328 788.604187,694.189392 
	C788.007019,695.693787 787.756592,697.335876 787.600281,699.022095 
	C790.198303,692.845703 792.051453,686.540161 796.994568,681.375732 
	C804.606750,673.422791 815.416809,673.205750 822.266479,682.240601 
M779.887573,732.321472 
	C781.866394,729.601135 783.259155,726.603699 784.114868,723.354675 
	C786.204468,715.420471 782.131409,704.036011 774.940430,698.993408 
	C767.800293,693.986633 759.974304,693.361694 752.374634,697.729919 
	C743.501160,702.830322 740.167236,711.038391 741.323425,720.998779 
	C742.381104,730.110291 747.554993,736.389771 756.095276,739.373901 
	C765.165710,742.543274 773.103027,740.241455 779.887573,732.321472 
M817.546387,687.285217 
	C817.443115,682.648743 814.833313,680.682739 810.492676,681.224548 
	C806.353882,681.741150 805.873779,684.930054 806.311768,688.286987 
	C806.645203,690.842346 808.255981,692.474243 810.866699,692.736389 
	C814.368164,693.088013 816.429993,691.254150 817.546387,687.285217 
z"/>
<path fill="#000000" opacity="1.000000" stroke="none" 
	d="
M713.640381,720.497925 
	C711.152405,724.718872 707.010315,726.443420 702.901917,729.438660 
	C708.572876,737.630432 714.174988,745.722656 720.159180,754.366821 
	C714.825745,756.106079 710.170166,754.791565 705.705994,755.408447 
	C699.584290,756.254333 697.932495,751.351624 695.265198,747.744568 
	C692.593201,744.131226 690.032898,740.434265 687.466553,736.744080 
	C684.526123,732.516113 679.340332,730.741089 674.581360,732.181885 
	C672.430054,732.833252 672.360962,734.393799 672.349915,736.086426 
	C672.318298,740.915527 672.205627,745.748230 672.350098,750.572754 
	C672.449768,753.898010 671.341187,755.432617 667.775757,755.357788 
	C652.346252,755.033691 654.911743,757.166931 654.810242,742.960144 
	C654.675842,724.143738 654.753479,705.325562 654.783081,686.508240 
	C654.792664,680.385620 655.192505,679.913757 661.313232,680.014709 
	C672.293579,680.195740 683.291443,679.331604 694.254822,680.560608 
	C715.210022,682.909790 724.652405,701.996948 713.640381,720.497925 
M693.628235,715.631042 
	C698.711487,713.396790 701.231384,709.516663 700.567627,704.945862 
	C699.860413,700.075500 696.034973,696.675720 690.431641,696.404053 
	C685.630981,696.171326 680.810303,696.379333 675.999573,696.312195 
	C673.550842,696.278015 672.296143,697.214050 672.340088,699.809326 
	C672.413086,704.121887 672.424500,708.438477 672.321899,712.750000 
	C672.260681,715.321106 673.280579,716.298462 675.875000,716.181519 
	C681.507019,715.927734 687.148071,715.875488 693.628235,715.631042 
z"/>
<path fill="#000000" opacity="1.000000" stroke="none" 
	d="
M431.013672,679.924500 
	C439.989990,680.194214 448.497467,679.313110 456.951141,680.444458 
	C470.885101,682.309326 478.138031,688.423340 480.764709,700.196655 
	C482.645905,708.628662 479.868103,721.991089 467.773773,727.936523 
	C467.342896,728.148376 467.010529,728.560608 465.911682,729.486755 
	C471.403229,737.552734 476.939087,745.683838 483.422394,755.206482 
	C476.323029,755.206482 470.469910,755.513855 464.669556,755.093262 
	C461.090302,754.833740 460.218140,750.918640 458.351746,748.504150 
	C455.300995,744.557434 452.563354,740.368347 449.700531,736.276733 
	C447.016754,732.440857 441.936066,730.808411 437.483917,732.159363 
	C435.349213,732.807129 435.250549,734.373169 435.232971,736.066101 
	C435.181091,741.060547 435.122192,746.055847 435.158539,751.050049 
	C435.179352,753.912537 434.050293,755.344177 431.023743,755.315125 
	C414.715149,755.158447 417.828461,757.205383 417.697144,742.909729 
	C417.527374,724.430176 417.653778,705.947876 417.663513,687.466736 
	C417.667480,679.954224 417.680420,679.952698 425.021301,679.924438 
	C426.852753,679.917419 428.684265,679.923828 431.013672,679.924500 
M446.460114,696.236572 
	C444.462250,696.232178 442.446198,696.398499 440.470276,696.188110 
	C436.257172,695.739563 434.819244,697.603760 435.098083,701.662109 
	C435.360077,705.474670 435.198639,709.316833 435.210052,713.145935 
	C435.215576,715.003052 435.687256,716.540894 437.913452,716.529175 
	C443.725739,716.498657 449.579163,717.204895 455.330750,715.898010 
	C460.463531,714.731812 463.652466,710.783630 463.535400,706.003540 
	C463.411407,700.941345 459.828217,697.073914 454.404755,696.422791 
	C452.102417,696.146301 449.750000,696.287415 446.460114,696.236572 
z"/>
<path fill="#000000" opacity="1.000000" stroke="none" 
	d="
M491.445007,719.518921 
	C491.538086,707.898193 491.709229,696.743347 491.572296,685.592224 
	C491.523895,681.650391 492.621063,679.855164 496.891113,679.897339 
	C511.422516,680.040894 508.941772,679.150391 509.107788,691.727295 
	C509.188568,697.849243 509.121735,703.973145 509.121735,709.300110 
	C515.032776,703.893677 521.147522,698.370361 527.169983,692.748169 
	C528.866028,691.164795 530.580688,689.471191 531.792175,687.520874 
	C538.261230,677.106628 548.158325,679.961853 557.418274,680.079529 
	C558.106628,682.504883 556.575134,683.329590 555.638916,684.350220 
	C548.326416,692.322449 541.121155,700.403381 533.539673,708.113220 
	C530.694031,711.007019 530.756226,712.908325 533.091919,716.028687 
	C541.469543,727.220886 549.564331,738.625183 557.731384,749.974121 
	C558.671875,751.281006 560.070190,752.386597 560.042908,755.120422 
	C553.873352,755.120422 547.686218,755.225220 541.506592,755.055176 
	C539.702820,755.005554 538.943054,753.066650 537.985229,751.749756 
	C532.404663,744.077515 526.887878,736.358826 521.305298,728.688110 
	C520.350708,727.376526 519.690063,725.744263 517.673645,724.968201 
	C512.110107,729.638855 506.577423,734.278931 508.373474,743.002319 
	C508.871155,745.419617 508.716339,747.973694 508.832520,750.466370 
	C508.981232,753.658142 507.844360,755.396667 504.241516,755.330383 
	C489.461243,755.058655 491.200500,757.244080 491.077545,742.946716 
	C491.011719,735.294739 491.282715,727.639832 491.445007,719.518921 
z"/>
<path fill="#000000" opacity="1.000000" stroke="none" 
	d="
M384.837708,697.250244 
	C393.244232,716.389465 401.480835,735.189331 410.052551,754.754089 
	C403.690613,755.648376 398.581329,755.350464 393.496796,755.168152 
	C391.031708,755.079773 390.499481,752.858887 389.726685,751.032959 
	C384.082214,737.696594 387.465515,740.338623 373.030670,739.946289 
	C368.043304,739.810730 363.050049,739.737000 358.073364,739.418701 
	C354.959320,739.219604 352.925507,740.275452 352.003326,743.300903 
	C351.907135,743.616516 351.726746,743.905640 351.597137,744.211975 
	C346.468994,756.337769 344.198730,757.468323 330.522644,754.661621 
	C329.397705,752.742004 330.743744,751.161865 331.420105,749.582214 
	C340.847534,727.564697 350.351746,705.580017 359.767181,683.557434 
	C360.866302,680.986633 362.304108,679.699219 365.316711,679.612488 
	C376.727142,679.283997 376.727905,679.175476 381.438110,689.609192 
	C382.533081,692.034790 383.592194,694.476624 384.837708,697.250244 
M370.880615,705.197205 
	C370.517151,704.499695 370.374420,703.600281 368.957062,703.467712 
	C365.656006,709.758057 363.082947,716.458679 360.365662,723.512024 
	C365.252747,725.276428 369.600891,724.336792 373.838348,724.599243 
	C377.352631,724.816956 378.390442,723.457703 376.957550,720.110901 
	C374.930237,715.375549 373.084473,710.562439 370.880615,705.197205 
z"/>
<path fill="#000000" opacity="1.000000" stroke="none" 
	d="
M270.994629,753.674622 
	C270.762878,730.274597 270.742096,707.321838 270.596405,684.369934 
	C270.575317,681.055603 272.051727,679.858093 275.089813,679.958069 
	C285.720551,680.307800 296.373352,679.371582 306.991394,680.608337 
	C322.089355,682.367065 331.505920,692.656250 331.261261,707.239014 
	C331.026917,721.205200 320.570129,732.025024 305.998199,733.269958 
	C301.695435,733.637573 297.368042,733.995056 293.058899,733.925476 
	C289.326477,733.865234 288.015381,735.363770 288.180695,738.967957 
	C288.371063,743.117493 288.177063,747.283325 288.228363,751.441101 
	C288.261841,754.157288 287.029236,755.545959 284.311066,755.277893 
	C279.932739,754.846069 275.369110,756.499084 270.994629,753.674622 
M307.624786,697.619568 
	C302.198608,695.228882 296.482697,696.406799 290.877350,696.298706 
	C289.016266,696.262756 288.273041,697.530762 288.269928,699.260925 
	C288.258942,705.362244 288.265625,711.463501 288.265625,717.945618 
	C293.337952,717.945618 297.795746,718.129456 302.232239,717.900757 
	C308.258026,717.590088 311.562866,715.079163 313.031494,710.011902 
	C314.533081,704.830872 312.497528,700.967041 307.624786,697.619568 
z"/>
<path fill="#000000" opacity="1.000000" stroke="none" 
	d="
M611.125977,733.932617 
	C606.497070,733.440186 605.007568,735.340332 605.275513,739.431458 
	C605.536072,743.409424 605.245361,747.420349 605.333191,751.413818 
	C605.393005,754.134277 604.289062,755.367981 601.510620,755.318604 
	C585.164673,755.028198 587.979431,757.455322 587.848877,742.630737 
	C587.684692,723.986267 587.836670,705.338806 587.899048,686.692749 
	C587.920654,680.228271 588.096680,680.016296 594.740601,680.056274 
	C604.553406,680.115295 614.384094,679.463928 624.173889,680.659668 
	C638.785095,682.444275 648.225525,692.604736 648.223694,706.539124 
	C648.221863,720.312500 638.163879,731.483093 624.029114,733.188599 
	C619.910400,733.685608 615.733337,733.698914 611.125977,733.932617 
M617.199829,696.239075 
	C605.317322,696.159424 605.317383,696.159424 605.322327,707.020447 
	C605.328003,719.443176 605.327942,719.443176 617.900879,718.590698 
	C625.589905,718.069397 630.650879,713.500732 630.599487,707.127380 
	C630.548462,700.797119 626.031982,696.868408 617.199829,696.239075 
z"/>
<path fill="#000000" opacity="1.000000" stroke="none" 
	d="
M472.073364,345.899536 
	C521.691101,331.825195 567.259155,340.482605 609.853638,367.886353 
	C613.011780,369.918182 614.364136,372.252869 614.321777,376.028381 
	C614.092285,396.505280 614.976685,417.005157 613.246033,437.450012 
	C608.060730,498.707397 577.339600,541.950500 521.425659,567.397827 
	C518.604553,568.681824 516.072754,568.544250 513.299927,567.302307 
	C462.576385,544.582397 431.346405,506.707977 422.539795,451.179077 
	C418.495087,425.675598 419.992828,400.029846 419.887878,374.414703 
	C419.871429,370.395111 422.512573,368.581085 425.367676,366.748505 
	C439.764984,357.507477 455.135315,350.445831 472.073364,345.899536 
M441.668823,468.907959 
	C452.859131,505.699463 476.493622,531.841187 510.170898,549.635864 
	C515.390808,552.394043 519.427490,552.164307 524.454773,549.471497 
	C568.942627,525.641785 593.194092,488.614410 597.815613,438.441986 
	C599.438965,420.818451 598.357361,403.171173 599.028625,385.551270 
	C599.219055,380.552307 597.433533,377.558929 593.183289,375.127716 
	C560.777954,356.591461 526.340210,349.468262 489.418732,356.580780 
	C472.138489,359.909637 455.771271,365.860718 440.609924,374.963562 
	C436.920044,377.178955 434.639099,379.669281 434.882599,384.463684 
	C435.211029,390.930450 434.681458,397.437866 434.599915,403.928864 
	C434.327576,425.603058 435.161896,447.163696 441.668823,468.907959 
z"/>
<path fill="#000000" opacity="1.000000" stroke="none" 
	d="
M504.887817,320.100464 
	C489.525787,321.127930 475.529694,325.868317 461.639465,330.830017 
	C460.841675,329.465637 461.820496,329.139008 462.457275,328.763123 
	C469.617584,324.536133 476.786774,320.324036 483.977264,316.148651 
	C484.682220,315.739319 485.538513,315.390381 486.334412,315.368195 
	C497.045654,315.069244 507.303589,310.680389 518.174255,311.850403 
	C519.659363,312.010284 521.240356,311.885651 522.436401,312.963501 
	C523.705078,314.106903 524.766785,315.546936 524.424194,317.314362 
	C524.051453,319.237946 522.224792,319.064636 520.772339,319.155731 
	C515.629700,319.478271 510.432434,318.850220 504.887817,320.100464 
z"/>
<path fill="#000000" opacity="1.000000" stroke="none" 
	d="
M455.639374,414.244751 
	C457.129425,411.348022 455.159882,410.837341 453.469421,410.028992 
	C451.523438,409.098511 450.310211,407.664978 450.657410,405.276733 
	C451.000916,402.913605 452.556976,401.993378 454.643677,401.408508 
	C456.769836,400.812622 459.178925,400.094940 461.016907,400.944580 
	C465.807404,403.159149 467.933594,400.143677 469.558899,396.868195 
	C475.450439,384.995087 485.553314,382.014740 497.905304,381.517700 
	C514.235474,380.860565 530.462769,380.876251 546.721313,382.554993 
	C551.948486,383.094727 555.860718,385.178406 558.797241,389.433197 
	C561.713928,393.659302 564.724670,397.820496 567.801208,402.161133 
	C571.140198,400.624634 574.414307,400.338654 577.717041,400.900574 
	C580.213318,401.325287 582.753357,401.945740 583.170898,405.097504 
	C583.549744,407.957184 581.645020,409.268158 579.427246,410.326569 
	C578.540283,410.749908 577.681091,411.231232 576.591797,411.799561 
	C582.320496,423.995667 579.540283,436.705872 579.509827,449.218567 
	C579.499268,453.552063 577.192017,455.544189 572.878662,455.427612 
	C569.388489,455.333313 565.894287,455.367676 562.401978,455.376892 
	C558.431213,455.387360 556.334473,453.282074 556.754578,449.474701 
	C557.345520,444.118011 554.912476,443.191650 550.129089,443.238953 
	C527.822144,443.459656 505.511078,443.421326 483.203247,443.248993 
	C478.890564,443.215668 476.760406,444.175476 476.886200,448.978180 
	C477.000916,453.358582 474.401520,455.591583 469.831268,455.390808 
	C466.507935,455.244843 463.172180,455.306915 459.843781,455.371338 
	C455.950348,455.446655 453.810120,453.547485 453.768921,449.722229 
	C453.663116,439.901489 453.626831,430.077362 453.793854,420.258514 
	C453.826202,418.356262 454.907043,416.471863 455.639374,414.244751 
M485.754791,390.071991 
	C478.482880,392.389893 477.064148,399.276611 472.933380,405.550812 
	C502.553925,407.143158 530.974548,407.576660 559.841064,405.414795 
	C559.363098,403.766327 559.306030,403.072174 558.983032,402.539215 
	C557.343140,399.833038 555.521179,397.231842 553.979980,394.472687 
	C552.276550,391.423096 549.680115,389.814850 546.356262,389.512024 
	C526.412415,387.695099 506.469818,387.264465 485.754791,390.071991 
M550.756226,426.599915 
	C555.973572,428.911224 561.348633,428.063629 566.551636,426.892761 
	C569.306824,426.272736 569.846130,423.463501 569.571045,420.786224 
	C569.410095,419.219818 568.413635,418.091125 566.944824,418.549500 
	C561.241333,420.329437 554.770325,420.510712 550.756226,426.599915 
M482.218628,426.504944 
	C482.634766,424.351624 481.024689,423.428436 479.570770,422.821320 
	C474.875366,420.860443 470.060486,419.233032 464.947693,418.936584 
	C463.460419,424.531952 464.404846,427.131073 468.527039,427.459442 
	C472.917755,427.809204 477.415985,428.556549 482.218628,426.504944 
z"/>
<path fill="#000000" opacity="1.000000" stroke="none" 
	d="
M507.968750,503.000427 
	C509.863800,504.861084 511.511810,506.474091 513.512634,508.432373 
	C519.993958,501.225861 526.319824,494.236603 532.595032,487.202179 
	C538.801941,480.244385 545.034729,473.306885 551.098145,466.225159 
	C553.547791,463.364105 555.363281,462.894226 558.339294,465.804565 
	C565.673218,472.976440 565.901550,472.913574 559.040771,480.549469 
	C545.244080,495.904785 531.285400,511.114624 517.528381,526.505005 
	C514.827576,529.526489 512.957520,529.927063 509.987244,526.761536 
	C502.924835,519.234924 495.614380,511.934448 488.235840,504.714539 
	C485.588318,502.123962 485.585571,500.306549 488.354095,497.810791 
	C496.842377,490.158752 494.934601,488.647461 503.207825,498.084412 
	C504.633026,499.710144 506.213135,501.200104 507.968750,503.000427 
z"/>
</svg>